Coordinates
version=1
nRows=6
nColumns=63
inDegrees=yes

Units are S.I. units (second, meters, Newtons, ...)
If the header above contains a line with 'inDegrees', this indicates whether rotational values are in degrees (yes) or radians (no).

endheader
time	pelvis_tilt	pelvis_list	pelvis_rotation	pelvis_tx	pelvis_ty	pelvis_tz	hip_flexion_r	hip_adduction_r	hip_rotation_r	knee_angle_r	knee_angle_r_beta	ankle_angle_r	subtalar_angle_r	mtp_angle_r	hip_flexion_l	hip_adduction_l	hip_rotation_l	knee_angle_l	knee_angle_l_beta	ankle_angle_l	subtalar_angle_l	mtp_angle_l	L5_S1_Flex_Ext	L5_S1_Lat_Bending	L5_S1_axial_rotation	L4_L5_Flex_Ext	L4_L5_Lat_Bending	L4_L5_axial_rotation	L3_L4_Flex_Ext	L3_L4_Lat_Bending	L3_L4_axial_rotation	L2_L3_Flex_Ext	L2_L3_Lat_Bending	L2_L3_axial_rotation	L1_L2_Flex_Ext	L1_L2_Lat_Bending	L1_L2_axial_rotation	L1_T12_Flex_Ext	L1_T12_Lat_Bending	L1_T12_axial_rotation	Abs_r3	Abs_r2	Abs_r1	Abs_t1	Abs_t2	neck_flexion	neck_bending	neck_rotation	arm_flex_r	arm_add_r	arm_rot_r	elbow_flex_r	pro_sup_r	wrist_flex_r	wrist_dev_r	arm_flex_l	arm_add_l	arm_rot_l	elbow_flex_l	pro_sup_l	wrist_flex_l	wrist_dev_l
      2.51666667	     -1.86262847	      4.51203556	    -70.38873640	      0.04048211	      0.98002808	     -1.36949525	      4.33900733	      4.20624548	    -38.16542729	     25.97392863	      0.45333057	     28.07726681	    -12.16327049	      0.00000000	     30.92915524	     16.99221541	     34.02894581	     19.03309399	      0.33219016	    -11.73105603	    -18.57783635	      0.00000000	     -0.02097469	      0.66234917	     -2.37722181	     -0.03895209	      0.88092439	     -2.52579817	     -0.03445932	      1.61043576	     -2.52579817	     -0.02397197	      1.61043576	     -2.08006908	     -0.01947710	      1.35066242	     -1.93149272	     -0.01198494	      1.02597886	     -1.78291636	     -0.14982010	      7.49262624	    -13.22139453	      0.00000000	      0.00000000	     -8.55940879	      3.21051340	    -13.58151151	    -23.67172629	    -21.74566702	    -30.70523094	     54.52574070	     89.99559364	      0.00000000	      0.00000000	     -9.92879372	    -24.82703705	     16.28148403	     31.07950812	     89.99559364	      0.00000000	      0.00000000
      2.53333333	     -2.80134480	      3.47444823	    -72.11751651	      0.03620451	      0.97996778	     -1.35926132	      2.65821091	      6.10289601	    -36.99940299	     25.05756188	      0.43733696	     27.68716799	    -10.86669087	      0.00000000	     30.99826418	     15.02487707	     29.68395674	     22.41944616	      0.39129315	     -9.45896585	    -16.47897280	      0.00000000	     -0.02278392	      0.68117030	     -2.58955264	     -0.04231201	      0.90595651	     -2.75139968	     -0.03743169	      1.65619748	     -2.75139968	     -0.02603974	      1.65619748	     -2.26585856	     -0.02115714	      1.38904249	     -2.10401152	     -0.01301873	      1.05513280	     -1.94216448	     -0.16274323	      7.70553472	    -14.40231492	      0.00000000	      0.00000000	    -10.84933189	      2.08930663	     -8.61526841	    -22.87902427	    -23.57964698	    -27.29901192	     56.40382296	     89.99559364	      0.00000000	      0.00000000	    -10.43632900	    -25.14563011	     15.57453725	     30.03798879	     89.99559364	      0.00000000	      0.00000000
      2.55000000	     -3.76256435	      2.58827709	    -73.47112028	      0.03152814	      0.98003282	     -1.34911657	      1.08838706	      8.07510105	    -35.31490141	     23.97381753	      0.41842205	     26.98370264	    -10.70734858	      0.00000000	     31.67344348	     12.23286888	     21.21046957	     25.97647246	      0.45337497	     -5.64664058	     -7.21073351	      0.00000000	     -0.02518239	      0.68457091	     -2.72706493	     -0.04676622	      0.91047931	     -2.89750648	     -0.04137215	      1.66446570	     -2.89750648	     -0.02878095	      1.66446570	     -2.38618181	     -0.02338437	      1.39597699	     -2.21574025	     -0.01438922	      1.06040034	     -2.04529869	     -0.17987530	      7.74400302	    -15.16711700	      0.00000000	      0.00000000	    -12.74019233	      1.54915943	     -4.24744908	    -22.27982983	    -25.05958173	    -24.60444070	     58.13017697	     89.99559364	      0.00000000	      0.00000000	    -10.57243762	    -25.56334145	     14.68073716	     29.05141702	     89.99559364	      0.00000000	      0.00000000
      2.56666667	     -4.62387401	      2.00442290	    -74.58102805	      0.02689111	      0.98031449	     -1.33842993	     -0.25793371	      9.85045101	    -33.33206868	     22.89884796	      0.39966029	     26.23083865	    -11.24135021	      0.00000000	     32.36953976	      9.22943875	     13.10672897	     29.14676840	      0.50870707	     -3.24883703	      1.91060984	      0.00000000	     -0.02479887	      0.65797759	     -2.62493733	     -0.04605397	      0.87511019	     -2.78899591	     -0.04074206	      1.59980671	     -2.78899591	     -0.02834262	      1.59980671	     -2.29682016	     -0.02302823	      1.34174790	     -2.13276158	     -0.01417007	      1.01920728	     -1.96870300	     -0.17713582	      7.44317406	    -14.59911395	      0.00000000	      0.00000000	    -13.69973825	      2.11516235	     -2.61032681	    -22.53636495	    -25.75106041	    -23.92553342	     59.81993689	     89.99559364	      0.00000000	      0.00000000	     -9.91741191	    -26.06684088	     13.92675270	     28.30001867	     89.99559364	      0.00000000	      0.00000000
      2.58333333	     -5.32483089	      1.78703392	    -75.18177512	      0.02308828	      0.98091846	     -1.32700893	     -1.28679484	     11.19654279	    -32.06418865	     22.03334386	      0.38455440	     25.50117929	    -11.49451859	      0.00000000	     32.75694346	      7.10581638	      8.60064464	     31.43603605	      0.54866233	     -2.26574139	      6.50780365	      0.00000000	     -0.02371141	      0.59907959	     -2.33763564	     -0.04403445	      0.79677586	     -2.48373787	     -0.03895547	      1.45660213	     -2.48373787	     -0.02709977	      1.45660213	     -2.04543119	     -0.02201841	      1.22164311	     -1.89932896	     -0.01354870	      0.92797429	     -1.75322673	     -0.16936820	      6.77690819	    -13.00122816	      0.00000000	      0.00000000	    -14.23515699	      2.80066745	     -2.87850934	    -23.69924573	    -25.68636672	    -25.25257616	     61.50843996	     89.99559364	      0.00000000	      0.00000000	     -8.56880644	    -26.53705253	     13.18172637	     27.90156885	     89.99559364	      0.00000000	      0.00000000
      2.60000000	     -5.92807387	      1.92390145	    -75.42536115	      0.02009639	      0.98158070	     -1.31477898	     -1.84237279	     12.15175274	    -31.42236939	     21.67676745	      0.37833096	     24.83916809	    -11.50609348	      0.00000000	     33.04719288	      5.90421278	      7.01139760	     32.96705637	      0.57538368	     -1.32614634	      7.73316688	      0.00000000	     -0.02165945	      0.51708002	     -1.96337716	     -0.04022376	      0.68771643	     -2.08608823	     -0.03558431	      1.25722836	     -2.08608823	     -0.02475458	      1.25722836	     -1.71795501	     -0.02011296	      1.05442958	     -1.59524394	     -0.01237621	      0.80095695	     -1.47253287	     -0.15471127	      5.84931260	    -10.91971473	      0.00000000	      0.00000000	    -14.10025910	      3.74212334	     -4.18208208	    -25.41007347	    -25.20288123	    -27.77608385	     63.25386005	     89.99559364	      0.00000000	      0.00000000	     -7.12839634	    -26.92459942	     12.07520263	     28.19065533	     89.99559364	      0.00000000	      0.00000000
